<svg width="36" height="34" viewBox="0 0 36 34" fill="none" xmlns="http://www.w3.org/2000/svg">
<path d="M34.5857 11.9262C33.6822 9.78754 32.3722 7.84449 30.7286 6.20478C29.0889 4.56111 27.1458 3.25119 25.0071 2.34764C22.7853 1.40746 20.4308 0.93335 18 0.93335C15.5692 0.93335 13.2147 1.40746 10.9929 2.34764C8.85419 3.25119 6.91114 4.56111 5.27143 6.20478C3.62776 7.84449 2.31784 9.78754 1.41429 11.9262C0.474107 14.1481 0 16.5025 0 18.9334C0 24.265 2.34241 29.2874 6.42455 32.7186L6.49286 32.7749C6.72589 32.9677 7.0192 33.0762 7.32054 33.0762H28.6835C28.9848 33.0762 29.2781 32.9677 29.5112 32.7749L29.5795 32.7186C33.6576 29.2874 36 24.265 36 18.9334C36 16.5025 35.5219 14.1481 34.5857 11.9262ZM28.0205 30.0226H7.97946C6.42695 28.6228 5.18612 26.9121 4.3375 25.0017C3.48889 23.0913 3.05145 21.0238 3.05357 18.9334C3.05357 14.9396 4.60848 11.1869 7.43304 8.36639C10.2576 5.54183 14.0103 3.98692 18 3.98692C21.9937 3.98692 25.7464 5.54183 28.567 8.36639C31.3915 11.1909 32.9464 14.9436 32.9464 18.9334C32.9464 23.1762 31.1585 27.19 28.0205 30.0226ZM22.4799 13.3686C22.4195 13.3088 22.3379 13.2752 22.2529 13.2752C22.1679 13.2752 22.0863 13.3088 22.0259 13.3686L18.6308 16.7637C17.8795 16.5628 17.0478 16.7557 16.4571 17.3463C16.2479 17.5551 16.082 17.8031 15.9687 18.0761C15.8555 18.3491 15.7972 18.6418 15.7972 18.9374C15.7972 19.2329 15.8555 19.5256 15.9687 19.7986C16.082 20.0716 16.2479 20.3196 16.4571 20.5284C16.6659 20.7376 16.9139 20.9036 17.187 21.0168C17.46 21.1301 17.7526 21.1884 18.0482 21.1884C18.3438 21.1884 18.6364 21.1301 18.9095 21.0168C19.1825 20.9036 19.4305 20.7376 19.6393 20.5284C19.9191 20.2495 20.1203 19.9016 20.2226 19.5199C20.3249 19.1382 20.3247 18.7363 20.2219 18.3548L23.617 14.9597C23.7415 14.8351 23.7415 14.6302 23.617 14.5057L22.4799 13.3686ZM17.1161 9.29049H18.8839C19.0607 9.29049 19.2054 9.14585 19.2054 8.96906V5.75478C19.2054 5.57799 19.0607 5.43335 18.8839 5.43335H17.1161C16.9393 5.43335 16.7946 5.57799 16.7946 5.75478V8.96906C16.7946 9.14585 16.9393 9.29049 17.1161 9.29049ZM27.5625 18.0494V19.8173C27.5625 19.9941 27.7071 20.1387 27.8839 20.1387H31.0982C31.275 20.1387 31.4196 19.9941 31.4196 19.8173V18.0494C31.4196 17.8726 31.275 17.728 31.0982 17.728H27.8839C27.7071 17.728 27.5625 17.8726 27.5625 18.0494ZM28.0728 10.1262L26.8232 8.87665C26.7628 8.81684 26.6812 8.78328 26.5962 8.78328C26.5112 8.78328 26.4296 8.81684 26.3692 8.87665L24.0951 11.1508C24.0353 11.2112 24.0017 11.2928 24.0017 11.3778C24.0017 11.4628 24.0353 11.5444 24.0951 11.6048L25.3446 12.8543C25.4692 12.9789 25.6741 12.9789 25.7987 12.8543L28.0728 10.5802C28.1973 10.4557 28.1973 10.2508 28.0728 10.1262ZM9.64688 8.87665C9.58646 8.81684 9.50488 8.78328 9.41987 8.78328C9.33485 8.78328 9.25327 8.81684 9.19286 8.87665L7.9433 10.1262C7.88349 10.1866 7.84993 10.2682 7.84993 10.3532C7.84993 10.4382 7.88349 10.5198 7.9433 10.5802L10.2174 12.8543C10.342 12.9789 10.5469 12.9789 10.6714 12.8543L11.921 11.6048C12.0455 11.4802 12.0455 11.2753 11.921 11.1508L9.64688 8.87665ZM7.95536 17.728H4.74107C4.56429 17.728 4.41964 17.8726 4.41964 18.0494V19.8173C4.41964 19.9941 4.56429 20.1387 4.74107 20.1387H7.95536C8.13214 20.1387 8.27679 19.9941 8.27679 19.8173V18.0494C8.27679 17.8726 8.13214 17.728 7.95536 17.728Z" fill="black" fill-opacity="0.85"/>
</svg>
