<svg width="14" height="14" viewBox="0 0 14 14" fill="none" xmlns="http://www.w3.org/2000/svg">
<path d="M6.99902 0.875C3.6166 0.875 0.874023 3.61758 0.874023 7C0.874023 10.3824 3.6166 13.125 6.99902 13.125C10.3814 13.125 13.124 10.3824 13.124 7C13.124 3.61758 10.3814 0.875 6.99902 0.875ZM6.99902 12.0859C4.19082 12.0859 1.91309 9.8082 1.91309 7C1.91309 4.1918 4.19082 1.91406 6.99902 1.91406C9.80723 1.91406 12.085 4.1918 12.085 7C12.085 9.8082 9.80723 12.0859 6.99902 12.0859Z" fill="white"/>
<path d="M8.52459 4.32946C8.11444 3.96989 7.57303 3.77301 6.99881 3.77301C6.42459 3.77301 5.88318 3.97125 5.47303 4.32946C5.04647 4.7027 4.81131 5.20446 4.81131 5.74176V5.84567C4.81131 5.90582 4.86053 5.95504 4.92068 5.95504H5.57693C5.63709 5.95504 5.68631 5.90582 5.68631 5.84567V5.74176C5.68631 5.13883 6.27557 4.64801 6.99881 4.64801C7.72205 4.64801 8.31131 5.13883 8.31131 5.74176C8.31131 6.16696 8.01053 6.5566 7.54432 6.73571C7.25447 6.84645 7.00838 7.04059 6.83201 7.29489C6.65291 7.55465 6.55994 7.86637 6.55994 8.18219V8.47614C6.55994 8.53629 6.60916 8.58551 6.66932 8.58551H7.32557C7.38573 8.58551 7.43494 8.53629 7.43494 8.47614V8.16578C7.43565 8.03306 7.47634 7.90363 7.5517 7.79437C7.62705 7.68511 7.73359 7.6011 7.8574 7.55328C8.66404 7.24293 9.18494 6.53199 9.18494 5.74176C9.18631 5.20446 8.95115 4.7027 8.52459 4.32946ZM6.45193 10.0074C6.45193 10.1524 6.50955 10.2915 6.61211 10.3941C6.71467 10.4966 6.85377 10.5543 6.99881 10.5543C7.14385 10.5543 7.28295 10.4966 7.38551 10.3941C7.48807 10.2915 7.54568 10.1524 7.54568 10.0074C7.54568 9.86235 7.48807 9.72325 7.38551 9.62069C7.28295 9.51813 7.14385 9.46051 6.99881 9.46051C6.85377 9.46051 6.71467 9.51813 6.61211 9.62069C6.50955 9.72325 6.45193 9.86235 6.45193 10.0074Z" fill="white"/>
</svg>
