<svg width="14" height="14" viewBox="0 0 14 14" fill="none" xmlns="http://www.w3.org/2000/svg">
<path d="M13.2118 12.3535L9.15396 8.2957C9.78364 7.48164 10.1243 6.48633 10.1243 5.43945C10.1243 4.18633 9.6352 3.01133 8.75083 2.12539C7.86645 1.23945 6.68833 0.751953 5.43677 0.751953C4.1852 0.751953 3.00708 1.24102 2.1227 2.12539C1.23677 3.00977 0.749268 4.18633 0.749268 5.43945C0.749268 6.69102 1.23833 7.86914 2.1227 8.75352C3.00708 9.63945 4.18364 10.127 5.43677 10.127C6.48364 10.127 7.47739 9.78633 8.29146 9.1582L12.3493 13.2145C12.3612 13.2264 12.3753 13.2358 12.3908 13.2422C12.4064 13.2487 12.4231 13.252 12.4399 13.252C12.4567 13.252 12.4734 13.2487 12.4889 13.2422C12.5045 13.2358 12.5186 13.2264 12.5305 13.2145L13.2118 12.5348C13.2237 12.5229 13.2331 12.5087 13.2396 12.4932C13.246 12.4776 13.2493 12.461 13.2493 12.4441C13.2493 12.4273 13.246 12.4106 13.2396 12.3951C13.2331 12.3795 13.2237 12.3654 13.2118 12.3535ZM7.91177 7.91445C7.24927 8.57539 6.37114 8.93945 5.43677 8.93945C4.50239 8.93945 3.62427 8.57539 2.96177 7.91445C2.30083 7.25195 1.93677 6.37383 1.93677 5.43945C1.93677 4.50508 2.30083 3.62539 2.96177 2.96445C3.62427 2.30352 4.50239 1.93945 5.43677 1.93945C6.37114 1.93945 7.25083 2.30195 7.91177 2.96445C8.57271 3.62695 8.93677 4.50508 8.93677 5.43945C8.93677 6.37383 8.57271 7.25352 7.91177 7.91445Z" fill="white"/>
</svg>
